<?xml version="1.0" encoding="UTF-8"?><svg id="Layer_1" xmlns="http://www.w3.org/2000/svg" viewBox="0 0 1803.11 1783.45"><defs><style>.cls-1{fill:#241f20;}</style></defs><g><rect class="cls-1" x="142.08" y="1386.32" width="938.93" height="60" transform="translate(-822.35 847.2) rotate(-45)"/><rect class="cls-1" x="971.42" y="577.09" width="898.71" height="60" transform="translate(-13.16 1182.4) rotate(-45)"/></g><g><rect class="cls-1" x="716.42" y="322.39" width="897.24" height="60" transform="translate(92.03 926.98) rotate(-45)"/><rect class="cls-1" x="-113.13" y="1131.1" width="938.93" height="60" transform="translate(-716.63 592) rotate(-45)"/></g><rect class="cls-1" x="697.57" y="762.05" width="225.95" height="60" transform="translate(-322.66 804.93) rotate(-44.99)"/><rect class="cls-1" x="782.22" y="846.7" width="225.95" height="60" transform="translate(-357.72 889.56) rotate(-44.99)"/><g><rect class="cls-1" x="801.27" y="407.25" width="897.24" height="60" transform="translate(56.88 1011.83) rotate(-45)"/><rect class="cls-1" x="-28.28" y="1215.95" width="938.93" height="60" transform="translate(-751.78 676.85) rotate(-45)"/></g><g><rect class="cls-1" x="886.27" y="492.25" width="897.24" height="60" transform="translate(21.67 1096.82) rotate(-45)"/><rect class="cls-1" x="56.72" y="1300.96" width="938.93" height="60" transform="translate(-786.99 761.85) rotate(-45)"/></g><rect class="cls-1" x="867.58" y="932.05" width="225.96" height="60" transform="translate(-393.08 974.89) rotate(-44.99)"/><rect class="cls-1" x="952.94" y="1017.41" width="225.95" height="60" transform="translate(-428.43 1060.23) rotate(-44.99)"/></svg>