<?xml version="1.0" encoding="UTF-8"?><svg id="Layer_1" xmlns="http://www.w3.org/2000/svg" viewBox="0 0 1803.11 1783.45"><defs><style>.cls-1{fill:#241f20;}</style></defs><g><g><rect class="cls-1" x="649.6" y="1286.96" width="122.17" height="60" transform="translate(-722.91 887.69) rotate(-44.98)"/><rect class="cls-1" x="1073.98" y="531.72" width="783.88" height="60" transform="translate(32.14 1201.03) rotate(-45)"/></g><g><rect class="cls-1" x="818.98" y="277.03" width="782.41" height="60" transform="translate(137.32 945.59) rotate(-45)"/><rect class="cls-1" x="394.39" y="1031.74" width="122.17" height="60" transform="translate(-617.19 632.62) rotate(-44.98)"/></g><rect class="cls-1" x="451.17" y="813.68" width="615.05" height="60" transform="translate(-374.35 783.51) rotate(-45)"/><rect class="cls-1" x="535.82" y="898.33" width="615.05" height="60" transform="translate(-409.42 868.15) rotate(-45)"/><g><rect class="cls-1" x="903.83" y="361.88" width="782.41" height="60" transform="translate(102.17 1030.44) rotate(-45)"/><rect class="cls-1" x="479.24" y="1116.59" width="122.16" height="60" transform="translate(-652.34 717.44) rotate(-44.98)"/></g><g><rect class="cls-1" x="988.84" y="446.88" width="782.41" height="60" transform="translate(66.96 1115.44) rotate(-45)"/><rect class="cls-1" x="564.24" y="1201.6" width="122.17" height="60" transform="translate(-687.55 802.38) rotate(-44.98)"/></g><rect class="cls-1" x="621.17" y="983.69" width="615.05" height="60" transform="translate(-444.77 953.5) rotate(-45)"/><rect class="cls-1" x="706.53" y="1069.05" width="615.05" height="60" transform="translate(-480.13 1038.85) rotate(-45)"/><rect class="cls-1" x="185.18" y="1229.23" width="315.95" height="60" transform="translate(-789.82 611.32) rotate(-44.99)"/><rect class="cls-1" x="269.83" y="1313.88" width="315.95" height="60" transform="translate(-824.88 695.95) rotate(-44.99)"/><rect class="cls-1" x="355.18" y="1399.23" width="315.95" height="60" transform="translate(-860.24 781.3) rotate(-44.99)"/><rect class="cls-1" x="440.54" y="1484.59" width="315.95" height="60" transform="translate(-895.59 866.64) rotate(-44.99)"/></g><rect class="cls-1" x="239.97" y="1638.42" width="239.37" height="60" transform="translate(-1074.22 742.69) rotate(-44.99)"/><rect class="cls-1" x="-15.23" y="1383.2" width="239.37" height="60" transform="translate(-968.49 487.55) rotate(-44.99)"/><rect class="cls-1" x="69.62" y="1468.05" width="239.37" height="60" transform="translate(-1003.66 572.4) rotate(-44.99)"/><rect class="cls-1" x="154.62" y="1553.06" width="239.37" height="60" transform="translate(-1038.86 657.36) rotate(-44.99)"/></svg>