<?xml version="1.0" encoding="UTF-8"?><svg id="Layer_1" xmlns="http://www.w3.org/2000/svg" viewBox="0 0 1803.11 1783.45"><defs><style>.cls-1{fill:#241f20;}</style></defs><g><g><rect class="cls-1" x="1148.06" y="689.89" width="319.38" height="60" transform="translate(-126.08 1135.34) rotate(-44.99)"/><rect class="cls-1" x="1511.02" y="345.3" width="282.63" height="60" transform="translate(218.46 1278.11) rotate(-44.99)"/></g><g><rect class="cls-1" x="1256.02" y="90.61" width="281.16" height="60" transform="translate(323.65 1022.73) rotate(-44.99)"/><rect class="cls-1" x="892.85" y="434.67" width="319.38" height="60" transform="translate(-20.36 880.19) rotate(-44.99)"/></g><rect class="cls-1" x="1180.75" y="298.47" width="186.31" height="60" transform="translate(140.71 996.75) rotate(-44.99)"/><rect class="cls-1" x="1265.4" y="383.12" width="186.31" height="60" transform="translate(105.65 1081.37) rotate(-44.99)"/><g><rect class="cls-1" x="1340.88" y="175.46" width="281.16" height="60" transform="translate(288.48 1107.53) rotate(-44.99)"/><rect class="cls-1" x="977.7" y="519.53" width="319.38" height="60" transform="translate(-55.5 965.03) rotate(-44.99)"/></g><g><rect class="cls-1" x="1425.88" y="260.46" width="281.16" height="60" transform="translate(253.27 1192.52) rotate(-44.99)"/><rect class="cls-1" x="1062.7" y="604.53" width="319.38" height="60" transform="translate(-90.72 1050) rotate(-44.99)"/></g><rect class="cls-1" x="1350.76" y="468.47" width="186.31" height="60" transform="translate(70.29 1166.7) rotate(-44.99)"/><rect class="cls-1" x="1436.12" y="553.83" width="186.31" height="60" transform="translate(34.94 1252.03) rotate(-44.99)"/><rect class="cls-1" x="862.12" y="639.92" width="140.68" height="60" transform="translate(-200.65 855.22) rotate(-44.98)"/><rect class="cls-1" x="946.77" y="724.57" width="140.68" height="60" transform="translate(-235.71 939.84) rotate(-44.98)"/><rect class="cls-1" x="1032.12" y="809.92" width="140.68" height="60" transform="translate(-271.07 1025.15) rotate(-44.98)"/><rect class="cls-1" x="1117.48" y="895.28" width="140.68" height="60" transform="translate(-306.42 1110.48) rotate(-44.98)"/></g><rect class="cls-1" x="93.99" y="1317.38" width="1173.42" height="60" transform="translate(-753.36 875.91) rotate(-45)"/><rect class="cls-1" x="-161.22" y="1062.16" width="1173.42" height="60" transform="translate(-647.64 620.72) rotate(-45)"/><rect class="cls-1" x="-76.37" y="1147.02" width="1173.42" height="60" transform="translate(-682.78 705.56) rotate(-45)"/><rect class="cls-1" x="8.63" y="1232.02" width="1173.42" height="60" transform="translate(-718 790.56) rotate(-45)"/></svg>