<?xml version="1.0" encoding="UTF-8"?><svg id="Layer_1" xmlns="http://www.w3.org/2000/svg" viewBox="0 0 1803.11 1783.45"><defs><style>.cls-1{fill:#241f20;}</style></defs><path class="cls-1" d="m310.55,1738.34l-42.42-42.43,638.46-638.4,42.42,42.43-638.46,638.4Zm-85.28-85.28l-42.42-42.43,638.46-638.4,42.42,42.43L225.27,1653.06Zm-85.28-85.28l-42.42-42.43,638.46-638.4,42.42,42.43L139.99,1567.78Zm-85.28-85.28l-42.42-42.43,638.46-638.4,42.42,42.43L54.71,1482.5Zm936.82-339.68l-42.43-42.43,799.29-799.24,42.43,42.43-799.29,799.24Zm-85.33-85.35l-42.42-42.43L1663.06,215.8l42.43,42.43-799.29,799.24Zm-85.33-85.35l-42.42-42.43L1577.73,130.45l42.43,42.43-799.29,799.24Zm-85.33-85.35l-42.43-42.43L1492.4,45.11l42.42,42.43-799.29,799.24Z"/></svg>