<?xml version="1.0" encoding="UTF-8"?><svg id="Layer_1" xmlns="http://www.w3.org/2000/svg" xmlns:xlink="http://www.w3.org/1999/xlink" viewBox="0 0 1803.11 1783.45"><defs><style>.cls-1{fill:none;}.cls-2{clip-path:url(#clippath);}.cls-3{fill:#241f20;}.cls-4{clip-path:url(#clippath-1);}.cls-5{clip-path:url(#clippath-2);}</style><clipPath id="clippath"><rect class="cls-1" x="549.76" y="230.73" width="650.38" height="1355.34"/></clipPath><clipPath id="clippath-1"><polygon class="cls-1" points="1107.08 723.42 583.36 1085.31 1222.53 1972.51 2046.91 1558.24 1107.08 723.42"/></clipPath><clipPath id="clippath-2"><polygon class="cls-1" points="583.36 1085.31 1273.41 608.79 122.63 -459.87 -145.24 319.37 583.36 1085.31"/></clipPath></defs><g class="cls-2"><g><g class="cls-4"><g><rect class="cls-3" x="1131" y="263.12" width="60" height="1440.7" transform="translate(-355.37 1108.97) rotate(-45)"/><rect class="cls-3" x="1045.66" y="348.45" width="60" height="1440.7" transform="translate(-440.71 1073.61) rotate(-45)"/><rect class="cls-3" x="960.31" y="433.78" width="60" height="1440.7" transform="translate(-526.04 1038.25) rotate(-45)"/><rect class="cls-3" x="874.96" y="519.11" width="60" height="1440.7" transform="translate(-611.37 1002.9) rotate(-45)"/></g></g><g class="cls-5"><path class="cls-3" d="m986.4,1277.91L-.64,290.81l42.43-42.43,987.04,987.1-42.43,42.43Zm85.28-85.28L84.64,205.53l42.43-42.43,987.04,987.1-42.43,42.43Zm85.28-85.28L169.92,120.25l42.43-42.43,987.04,987.1-42.43,42.43Zm85.28-85.28L255.2,34.97l42.43-42.43,987.04,987.1-42.43,42.43Z"/></g></g></g></svg>