<?xml version="1.0" encoding="UTF-8"?><svg id="Layer_1" xmlns="http://www.w3.org/2000/svg" xmlns:xlink="http://www.w3.org/1999/xlink" viewBox="0 0 1803.11 1783.45"><defs><style>.cls-1{fill:none;}.cls-2{fill:#241f20;}.cls-3{clip-path:url(#clippath-1);}.cls-4{clip-path:url(#clippath-2);}</style><clipPath id="clippath-1"><polygon class="cls-1" points="585.2 710.24 1257.3 1075.51 1995.83 517.18 1581.55 -307.21 585.2 710.24"/></clipPath><clipPath id="clippath-2"><polygon class="cls-1" points="1299.16 1098.93 627.06 733.66 -436.55 1617.08 342.69 1884.94 1299.16 1098.93"/></clipPath></defs><g class="cls-3"><g><rect class="cls-2" x="286.44" y="548.7" width="1440.7" height="60" transform="translate(-114.33 881.38) rotate(-45)"/><rect class="cls-2" x="371.77" y="634.05" width="1440.7" height="60" transform="translate(-149.69 966.71) rotate(-45)"/><rect class="cls-2" x="457.1" y="719.4" width="1440.7" height="60" transform="translate(-185.05 1052.04) rotate(-45)"/><rect class="cls-2" x="542.43" y="804.75" width="1440.7" height="60" transform="translate(-220.4 1137.37) rotate(-45)"/></g></g><g class="cls-4"><path class="cls-2" d="m314.13,1740.35l-42.42-42.43,792.18-792.12,42.42,42.43-792.18,792.12Zm-85.28-85.28l-42.42-42.43,792.18-792.12,42.42,42.43L228.85,1655.07Zm-85.28-85.28l-42.42-42.43,792.18-792.12,42.42,42.43L143.57,1569.78Zm-85.28-85.28l-42.42-42.43,792.18-792.12,42.42,42.43L58.29,1484.5Z"/></g></svg>