<?xml version="1.0" encoding="UTF-8"?><svg id="Layer_1" xmlns="http://www.w3.org/2000/svg" viewBox="0 0 1803.11 1783.45"><defs><style>.cls-1{fill:#241f20;}</style></defs><rect class="cls-1" x="197.99" y="1304.64" width="179.94" height="60" transform="translate(-859.22 594.27) rotate(-44.99)"/><rect class="cls-1" x="282.64" y="1389.29" width="179.94" height="60" transform="translate(-894.28 678.89) rotate(-44.99)"/><rect class="cls-1" x="367.29" y="1473.94" width="179.94" height="60" transform="translate(-929.34 763.49) rotate(-44.99)"/><rect class="cls-1" x="451.94" y="1558.59" width="179.94" height="60" transform="translate(-964.41 848.14) rotate(-44.99)"/><rect class="cls-1" x="268.35" y="1101.03" width="276.34" height="60" transform="translate(-680.61 618.54) rotate(-44.99)"/><rect class="cls-1" x="353" y="1185.68" width="276.34" height="60" transform="translate(-715.67 703.17) rotate(-44.99)"/><rect class="cls-1" x="437.66" y="1270.34" width="276.34" height="60" transform="translate(-750.71 787.74) rotate(-44.99)"/><rect class="cls-1" x="522.31" y="1355.02" width="276.25" height="60" transform="translate(-785.83 872.42) rotate(-44.99)"/><rect class="cls-1" x="520.46" y="982.16" width="179.94" height="60" transform="translate(-536.85 727.84) rotate(-44.99)"/><rect class="cls-1" x="605.11" y="1066.81" width="179.94" height="60" transform="translate(-571.91 812.46) rotate(-44.99)"/><rect class="cls-1" x="689.76" y="1151.46" width="179.94" height="60" transform="translate(-606.97 897.05) rotate(-44.99)"/><rect class="cls-1" x="774.41" y="1236.11" width="179.94" height="60" transform="translate(-642.04 981.71) rotate(-44.99)"/><rect class="cls-1" x="11.37" y="1396.32" width="199.72" height="60" transform="translate(-975.77 496.17) rotate(-44.99)"/><rect class="cls-1" x="96.02" y="1480.97" width="199.73" height="60" transform="translate(-1010.84 580.8) rotate(-44.99)"/><rect class="cls-1" x="180.67" y="1565.62" width="199.73" height="60" transform="translate(-1045.9 665.41) rotate(-44.99)"/><rect class="cls-1" x="263.39" y="1651.07" width="201.99" height="60" transform="translate(-1081.76 749.71) rotate(-44.99)"/><rect class="cls-1" x="858.51" y="1066.59" width="180.94" height="60" transform="translate(-497.43 991.89) rotate(-44.99)"/><rect class="cls-1" x="773.86" y="981.94" width="180.94" height="60" transform="translate(-462.37 907.27) rotate(-44.99)"/><rect class="cls-1" x="689.21" y="897.29" width="180.94" height="60" transform="translate(-427.3 822.64) rotate(-44.99)"/><rect class="cls-1" x="604.56" y="812.64" width="180.94" height="60" transform="translate(-392.24 738.02) rotate(-44.99)"/><rect class="cls-1" x="774.55" y="727.08" width="181.94" height="60" transform="translate(-281.85 833.5) rotate(-44.99)"/><rect class="cls-1" x="859.2" y="811.73" width="181.94" height="60" transform="translate(-316.91 918.13) rotate(-44.99)"/><rect class="cls-1" x="943.85" y="896.38" width="181.94" height="60" transform="translate(-351.97 1002.74) rotate(-44.99)"/><rect class="cls-1" x="1028.5" y="981.03" width="181.94" height="60" transform="translate(-387.03 1087.37) rotate(-44.99)"/><rect class="cls-1" x="1030" y="726.58" width="179.94" height="60" transform="translate(-207.01 1013.24) rotate(-44.99)"/><rect class="cls-1" x="1114.65" y="811.22" width="179.94" height="60" transform="translate(-242.07 1097.86) rotate(-44.99)"/><rect class="cls-1" x="1199.3" y="895.87" width="179.94" height="60" transform="translate(-277.13 1182.49) rotate(-44.99)"/><rect class="cls-1" x="945.35" y="641.93" width="179.94" height="60" transform="translate(-171.94 928.61) rotate(-44.99)"/><rect class="cls-1" x="962.85" y="310.51" width="639.31" height="60" transform="translate(134.82 1006.52) rotate(-45)"/><rect class="cls-1" x="1047.5" y="395.16" width="639.31" height="60" transform="translate(99.75 1091.16) rotate(-45)"/><rect class="cls-1" x="1132.15" y="479.81" width="639.31" height="60" transform="translate(64.69 1175.8) rotate(-45)"/><rect class="cls-1" x="1216.8" y="564.46" width="639.31" height="60" transform="translate(29.63 1260.45) rotate(-45)"/></svg>