<?xml version="1.0" encoding="UTF-8"?><svg id="Layer_1" xmlns="http://www.w3.org/2000/svg" viewBox="0 0 1803.11 1783.45"><defs><style>.cls-1{fill:#241f20;}</style></defs><rect class="cls-1" x="1127.17" y="551.18" width="762.41" height="60" transform="translate(30.8 1236.72) rotate(-45)"/><g><rect class="cls-1" x="1043.25" y="841.68" width="179.94" height="60" transform="translate(-284.5 1056.31) rotate(-44.99)"/><rect class="cls-1" x="141.62" y="1363.82" width="938.93" height="60" transform="translate(-806.57 840.28) rotate(-45)"/></g><rect class="cls-1" x="620.21" y="672.17" width="179.94" height="60" transform="translate(-288.5 707.61) rotate(-44.99)"/><g><rect class="cls-1" x="873.22" y="297.23" width="762.41" height="60" transform="translate(135.99 982.79) rotate(-45)"/><rect class="cls-1" x="704.86" y="756.82" width="179.94" height="60" transform="translate(-323.57 792.23) rotate(-44.99)"/></g><g><rect class="cls-1" x="957.87" y="381.88" width="762.41" height="60" transform="translate(100.93 1067.43) rotate(-45)"/><rect class="cls-1" x="789.51" y="841.47" width="179.94" height="60" transform="translate(-358.63 876.82) rotate(-44.99)"/></g><g><rect class="cls-1" x="1042.52" y="466.53" width="762.41" height="60" transform="translate(65.86 1152.08) rotate(-45)"/><rect class="cls-1" x="874.16" y="926.12" width="179.94" height="60" transform="translate(-393.69 961.47) rotate(-44.99)"/></g><g><rect class="cls-1" x="789.31" y="587.73" width="179.94" height="60" transform="translate(-179.31 802.43) rotate(-44.99)"/><rect class="cls-1" x="-112.32" y="1109.86" width="938.93" height="60" transform="translate(-701.37 586.35) rotate(-45)"/></g><g><rect class="cls-1" x="958.6" y="757.03" width="179.94" height="60" transform="translate(-249.43 971.67) rotate(-44.99)"/><rect class="cls-1" x="56.97" y="1279.16" width="938.93" height="60" transform="translate(-771.5 755.63) rotate(-45)"/></g><g><rect class="cls-1" x="873.96" y="672.38" width="179.94" height="60" transform="translate(-214.37 887.05) rotate(-44.99)"/><rect class="cls-1" x="-27.67" y="1194.51" width="938.93" height="60" transform="translate(-736.44 671) rotate(-45)"/></g></svg>